<svg width="26" height="26" viewBox="0 0 26 26" fill="none" xmlns="http://www.w3.org/2000/svg">
<mask id="path-1-inside-1_656_1381" fill="white">
<path d="M13.8672 15.9062C13.8672 14.8017 14.7626 13.9062 15.8672 13.9062H24.0005C25.1051 13.9062 26.0005 14.8017 26.0005 15.9062V23.7087C26.0005 24.8132 25.1051 25.7087 24.0005 25.7087H15.8672C14.7626 25.7087 13.8672 24.8132 13.8672 23.7087V15.9062Z"/>
</mask>
<path d="M13.8672 15.9062C13.8672 14.8017 14.7626 13.9062 15.8672 13.9062H24.0005C25.1051 13.9062 26.0005 14.8017 26.0005 15.9062V23.7087C26.0005 24.8132 25.1051 25.7087 24.0005 25.7087H15.8672C14.7626 25.7087 13.8672 24.8132 13.8672 23.7087V15.9062Z" stroke="white" stroke-width="6" mask="url(#path-1-inside-1_656_1381)"/>
<mask id="path-2-inside-2_656_1381" fill="white">
<path d="M0 15.9062C0 14.8017 0.895431 13.9062 2 13.9062H10.1333C11.2379 13.9062 12.1333 14.8017 12.1333 15.9062V23.7087C12.1333 24.8132 11.2379 25.7087 10.1333 25.7087H2C0.895431 25.7087 0 24.8132 0 23.7087V15.9062Z"/>
</mask>
<path d="M0 15.9062C0 14.8017 0.895431 13.9062 2 13.9062H10.1333C11.2379 13.9062 12.1333 14.8017 12.1333 15.9062V23.7087C12.1333 24.8132 11.2379 25.7087 10.1333 25.7087H2C0.895431 25.7087 0 24.8132 0 23.7087V15.9062Z" stroke="white" stroke-width="6" mask="url(#path-2-inside-2_656_1381)"/>
<mask id="path-3-inside-3_656_1381" fill="white">
<path d="M0 2.41797C0 1.3134 0.895431 0.417969 2 0.417969H10.1333C11.2379 0.417969 12.1333 1.3134 12.1333 2.41797V10.2204C12.1333 11.325 11.2379 12.2204 10.1333 12.2204H2C0.895431 12.2204 0 11.325 0 10.2204V2.41797Z"/>
</mask>
<path d="M0 2.41797C0 1.3134 0.895431 0.417969 2 0.417969H10.1333C11.2379 0.417969 12.1333 1.3134 12.1333 2.41797V10.2204C12.1333 11.325 11.2379 12.2204 10.1333 12.2204H2C0.895431 12.2204 0 11.325 0 10.2204V2.41797Z" stroke="white" stroke-width="6" mask="url(#path-3-inside-3_656_1381)"/>
<mask id="path-4-inside-4_656_1381" fill="white">
<path d="M13.8672 2.41797C13.8672 1.3134 14.7626 0.417969 15.8672 0.417969H24.0005C25.1051 0.417969 26.0005 1.3134 26.0005 2.41797V10.2204C26.0005 11.325 25.1051 12.2204 24.0005 12.2204H15.8672C14.7626 12.2204 13.8672 11.325 13.8672 10.2204V2.41797Z"/>
</mask>
<path d="M13.8672 2.41797C13.8672 1.3134 14.7626 0.417969 15.8672 0.417969H24.0005C25.1051 0.417969 26.0005 1.3134 26.0005 2.41797V10.2204C26.0005 11.325 25.1051 12.2204 24.0005 12.2204H15.8672C14.7626 12.2204 13.8672 11.325 13.8672 10.2204V2.41797Z" stroke="white" stroke-width="6" mask="url(#path-4-inside-4_656_1381)"/>
<rect x="2" y="2" width="8" height="8" fill="white"/>
<rect x="16" y="2" width="8" height="8" fill="white"/>
<rect x="16" y="16" width="8" height="8" fill="white"/>
<rect x="2" y="16" width="8" height="8" fill="white"/>
</svg>
