<svg xmlns="http://www.w3.org/2000/svg" xmlns:xlink="http://www.w3.org/1999/xlink" viewBox="0,0,256,256" width="30px" height="30px" fill-rule="nonzero"><g fill="#ffffff" fill-rule="nonzero" stroke="none" stroke-width="1" stroke-linecap="butt" stroke-linejoin="miter" stroke-miterlimit="10" stroke-dasharray="" stroke-dashoffset="0" font-family="none" font-weight="none" font-size="none" text-anchor="none" style="mix-blend-mode: normal"><g transform="scale(8.53333,8.53333)"><path d="M18.5,3c-4.694,0 -8.5,3.806 -8.5,8.5c0,1.04229 0.19765,2.0362 0.54102,2.95898l-7.54102,7.54102v5h5v-3h3v-3h3l1.54102,-1.54102c0.92278,0.34337 1.91669,0.54102 2.95898,0.54102c4.694,0 8.5,-3.806 8.5,-8.5c0,-4.694 -3.806,-8.5 -8.5,-8.5zM20.5,7c1.381,0 2.5,1.119 2.5,2.5c0,1.381 -1.119,2.5 -2.5,2.5c-1.381,0 -2.5,-1.119 -2.5,-2.5c0,-1.381 1.119,-2.5 2.5,-2.5z"></path></g></g></svg>